{"glyphs":{"\u0000":{"ha":444,"x_min":0,"x_max":0,"o":""}," ":{"ha":444,"x_min":0,"x_max":0,"o":""},"A":{"ha":461,"x_min":0,"x_max":0,"o":"m 111 906 l 373 906 l 406 971 l 144 971 z "},"B":{"ha":428,"x_min":0,"x_max":0,"o":"m 181 1079 l 181 16 b 197 0 181 7 188 0 l 246 0 b 263 16 255 0 263 7 l 263 1079 l 279 1079 b 361 997 324 1079 361 1042 l 361 785 b 377 768 361 776 368 768 l 426 768 b 443 785 435 768 443 776 l 443 981 b 279 1144 443 1071 369 1144 z "},"C":{"ha":526,"x_min":0,"x_max":0,"o":"m 193 114 l 193 1063 b 177 1079 193 1072 186 1079 l 127 1079 b 111 1063 118 1079 111 1072 l 111 16 b 127 0 111 7 118 0 l 193 0 l 471 294 l 406 327 l 361 351 b 367 407 343 364 346 400 l 422 425 l 373 458 l 338 455 b 297 328 272 430 263 371 l 357 278 z "},"D":{"ha":756,"x_min":0,"x_max":0,"o":"m 422 16 l 422 752 l 635 752 l 700 785 l 422 1079 l 357 1079 b 340 1063 348 1079 340 1072 l 340 817 l 144 817 l 111 752 l 340 752 l 340 16 b 357 0 340 7 348 0 l 406 0 b 422 16 415 0 422 7 z m 422 964 l 569 817 l 422 817 z "},"E":{"ha":247,"x_min":0,"x_max":0,"o":"m 111 955 l 111 742 b 127 726 111 733 118 726 l 177 726 b 193 742 186 726 193 733 l 193 955 b 177 971 193 964 186 971 l 127 971 b 111 955 118 971 111 964 z "},"F":{"ha":428,"x_min":0,"x_max":0,"o":"m 181 1079 l 181 16 b 197 0 181 7 188 0 l 246 0 b 263 16 255 0 263 7 l 263 1079 l 279 1079 b 361 997 324 1079 361 1042 l 361 785 b 377 768 361 776 368 768 l 426 768 b 443 785 435 768 443 776 l 443 981 b 279 1144 443 1071 369 1144 z "},"G":{"ha":635,"x_min":0,"x_max":0,"o":"m 301 114 l 301 1063 b 285 1079 301 1072 294 1079 l 236 1079 b 219 1063 227 1079 219 1072 l 219 16 b 236 0 219 7 227 0 l 301 0 l 579 294 l 514 327 l 470 351 b 475 407 451 364 454 400 l 530 425 l 481 458 l 447 455 b 405 328 381 430 371 371 l 465 278 z "},"H":{"ha":247,"x_min":0,"x_max":0,"o":"m 111 16 b 127 0 111 7 118 0 l 177 0 b 193 16 186 0 193 7 l 193 1063 b 177 1079 193 1072 186 1079 l 127 1079 b 111 1063 118 1079 111 1072 z "},"I":{"ha":428,"x_min":0,"x_max":0,"o":"m 144 971 l 111 906 l 258 906 l 193 775 l 275 775 l 373 971 z "},"J":{"ha":592,"x_min":0,"x_max":0,"o":"m 111 1062 l 111 16 b 127 0 111 7 118 0 l 193 0 l 276 120 b 357 65 292 146 359 150 l 357 -327 l 537 -196 l 504 -147 l 438 -196 l 438 147 b 259 186 433 220 298 243 l 194 102 l 193 1063 b 177 1079 193 1072 186 1079 l 127 1079 b 111 1062 118 1079 111 1072 z "},"K":{"ha":526,"x_min":0,"x_max":0,"o":"m 193 114 l 193 1063 b 177 1079 193 1072 186 1079 l 127 1079 b 111 1063 118 1079 111 1072 l 111 16 b 127 0 111 7 118 0 l 193 0 l 471 294 l 406 327 l 361 351 b 367 407 343 364 346 400 l 422 425 l 373 458 l 338 455 b 297 328 272 430 263 371 l 357 278 z "},"L":{"ha":289,"x_min":0,"x_max":0,"o":"m 152 1063 l 152 -114 b 70 -196 152 -160 116 -196 l 5 -196 l -28 -262 l 70 -262 b 234 -98 161 -262 234 -188 l 234 1063 b 218 1079 234 1072 227 1079 l 169 1079 b 152 1063 160 1079 152 1072 z "},"M":{"ha":428,"x_min":0,"x_max":0,"o":"m 111 1079 l 111 16 b 127 0 111 7 118 0 l 177 0 b 193 16 186 0 193 7 l 193 1079 l 209 1079 b 291 997 254 1079 291 1042 l 291 785 b 307 768 291 776 298 768 l 357 768 b 373 785 366 768 373 776 l 373 981 b 209 1144 373 1071 300 1144 z "},"N":{"ha":493,"x_min":0,"x_max":0,"o":"m 111 1079 l 111 16 b 127 0 111 7 118 0 l 177 0 b 193 16 186 0 193 7 l 193 1079 l 209 1079 b 291 997 254 1079 291 1042 l 291 523 b 307 507 291 514 298 507 l 406 507 l 438 572 l 373 572 l 373 981 b 209 1144 373 1071 300 1144 z "},"O":{"ha":428,"x_min":0,"x_max":0,"o":"m 111 971 l 242 742 l 373 971 l 294 971 b 242 871 294 971 242 870 l 190 971 z "},"P":{"ha":428,"x_min":0,"x_max":0,"o":"m 111 1079 l 111 16 b 127 0 111 7 118 0 l 177 0 b 193 16 186 0 193 7 l 193 1079 l 209 1079 b 291 997 254 1079 291 1042 l 291 785 b 307 768 291 776 298 768 l 357 768 b 373 785 366 768 373 776 l 373 981 b 209 1144 373 1071 300 1144 z "},"Q":{"ha":542,"x_min":0,"x_max":0,"o":"m 193 114 l 193 1063 b 177 1079 193 1072 186 1079 l 127 1079 b 111 1063 118 1079 111 1072 l 111 16 b 127 0 111 7 118 0 l 193 0 l 356 173 b 357 163 357 170 357 167 b 406 98 357 114 406 98 l 487 98 b 406 180 487 98 405 114 b 432 253 406 208 418 234 l 471 294 l 406 327 z "},"R":{"ha":289,"x_min":0,"x_max":0,"o":"m 152 1063 l 152 -114 b 70 -196 152 -160 116 -196 l 5 -196 l -28 -262 l 70 -262 b 234 -98 161 -262 234 -188 l 234 1063 b 218 1079 234 1072 227 1079 l 169 1079 b 152 1063 160 1079 152 1072 z "},"S":{"ha":526,"x_min":0,"x_max":0,"o":"m 193 16 l 193 964 l 357 801 l 297 750 b 338 624 263 708 272 649 l 373 621 l 422 654 l 367 672 b 361 728 346 679 343 715 l 406 752 l 471 785 l 193 1079 l 193 1079 l 127 1079 b 111 1063 118 1079 111 1072 l 111 16 b 127 0 111 7 118 0 l 177 0 b 193 16 186 0 193 7 z "},"T":{"ha":526,"x_min":0,"x_max":0,"o":"m 193 16 l 193 964 l 406 752 l 471 785 l 193 1079 l 127 1079 b 111 1063 118 1079 111 1072 l 111 16 b 127 0 111 7 118 0 l 177 0 b 193 16 186 0 193 7 z "},"U":{"ha":363,"x_min":0,"x_max":0,"o":"m 177 710 l 229 711 b 236 883 305 737 302 843 l 226 889 l 307 971 l 226 971 l 111 873 l 173 857 b 111 742 228 836 245 760 z "},"V":{"ha":428,"x_min":0,"x_max":0,"o":"m 111 1079 l 111 16 b 127 0 111 7 118 0 l 177 0 b 193 16 186 0 193 7 l 193 1079 l 209 1079 b 291 997 254 1079 291 1042 l 291 785 b 307 768 291 776 298 768 l 357 768 b 373 785 366 768 373 776 l 373 981 b 209 1144 373 1071 300 1144 z "},"W":{"ha":363,"x_min":0,"x_max":0,"o":"m 111 1063 l 111 0 l 193 -82 l 183 -88 b 189 -260 116 -128 114 -234 l 242 -262 l 307 -229 b 246 -114 173 -211 190 -135 l 307 -98 l 193 0 l 193 1063 b 177 1079 193 1072 186 1079 l 127 1079 b 111 1063 118 1079 111 1072 z "},"X":{"ha":247,"x_min":0,"x_max":0,"o":"m 111 16 b 127 0 111 7 118 0 l 177 0 b 193 16 186 0 193 7 l 193 1063 b 177 1079 193 1072 186 1079 l 127 1079 b 111 1063 118 1079 111 1072 z "},"Y":{"ha":739,"x_min":0,"x_max":0,"o":"m 193 1063 l 193 0 l 111 0 l 129 -45 b 684 16 207 -177 562 -227 l 602 16 l 554 -37 b 275 -49 444 -137 309 -78 l 275 1063 b 258 1079 275 1072 267 1079 l 209 1079 b 193 1063 200 1079 193 1072 z "},"Z":{"ha":510,"x_min":0,"x_max":0,"o":"m 111 1079 l 111 16 b 127 0 111 7 118 0 l 177 0 b 193 16 186 0 193 7 l 193 1079 l 455 1357 l 373 1357 z "},"^":{"ha":428,"x_min":0,"x_max":0,"o":"m 263 971 l 83 726 l 165 726 l 345 971 z "},"a":{"ha":461,"x_min":0,"x_max":0,"o":"m 111 906 l 373 906 l 406 971 l 144 971 z "},"b":{"ha":428,"x_min":0,"x_max":0,"o":"m 181 1079 l 181 16 b 197 0 181 7 188 0 l 246 0 b 263 16 255 0 263 7 l 263 1079 l 279 1079 b 361 997 324 1079 361 1042 l 361 785 b 377 768 361 776 368 768 l 426 768 b 443 785 435 768 443 776 l 443 981 b 279 1144 443 1071 369 1144 z "},"c":{"ha":526,"x_min":0,"x_max":0,"o":"m 193 114 l 193 1063 b 177 1079 193 1072 186 1079 l 127 1079 b 111 1063 118 1079 111 1072 l 111 16 b 127 0 111 7 118 0 l 193 0 l 471 294 l 406 327 l 361 351 b 367 407 343 364 346 400 l 422 425 l 373 458 l 338 455 b 297 328 272 430 263 371 l 357 278 z "},"d":{"ha":756,"x_min":0,"x_max":0,"o":"m 422 16 l 422 752 l 635 752 l 700 785 l 422 1079 l 357 1079 b 340 1063 348 1079 340 1072 l 340 817 l 144 817 l 111 752 l 340 752 l 340 16 b 357 0 340 7 348 0 l 406 0 b 422 16 415 0 422 7 z m 422 964 l 569 817 l 422 817 z "},"e":{"ha":247,"x_min":0,"x_max":0,"o":"m 111 955 l 111 742 b 127 726 111 733 118 726 l 177 726 b 193 742 186 726 193 733 l 193 955 b 177 971 193 964 186 971 l 127 971 b 111 955 118 971 111 964 z "},"f":{"ha":428,"x_min":0,"x_max":0,"o":"m 181 1079 l 181 16 b 197 0 181 7 188 0 l 246 0 b 263 16 255 0 263 7 l 263 1079 l 279 1079 b 361 997 324 1079 361 1042 l 361 785 b 377 768 361 776 368 768 l 426 768 b 443 785 435 768 443 776 l 443 981 b 279 1144 443 1071 369 1144 z "},"g":{"ha":635,"x_min":0,"x_max":0,"o":"m 301 114 l 301 1063 b 285 1079 301 1072 294 1079 l 236 1079 b 219 1063 227 1079 219 1072 l 219 16 b 236 0 219 7 227 0 l 301 0 l 579 294 l 514 327 l 470 351 b 475 407 451 364 454 400 l 530 425 l 481 458 l 447 455 b 405 328 381 430 371 371 l 465 278 z "},"h":{"ha":247,"x_min":0,"x_max":0,"o":"m 111 16 b 127 0 111 7 118 0 l 177 0 b 193 16 186 0 193 7 l 193 1063 b 177 1079 193 1072 186 1079 l 127 1079 b 111 1063 118 1079 111 1072 z "},"i":{"ha":428,"x_min":0,"x_max":0,"o":"m 144 971 l 111 906 l 258 906 l 193 775 l 275 775 l 373 971 z "},"j":{"ha":592,"x_min":0,"x_max":0,"o":"m 111 1062 l 111 16 b 127 0 111 7 118 0 l 193 0 l 276 120 b 357 65 292 146 359 150 l 357 -327 l 537 -196 l 504 -147 l 438 -196 l 438 147 b 259 186 433 220 298 243 l 194 102 l 193 1063 b 177 1079 193 1072 186 1079 l 127 1079 b 111 1062 118 1079 111 1072 z "},"k":{"ha":526,"x_min":0,"x_max":0,"o":"m 193 114 l 193 1063 b 177 1079 193 1072 186 1079 l 127 1079 b 111 1063 118 1079 111 1072 l 111 16 b 127 0 111 7 118 0 l 193 0 l 471 294 l 406 327 l 361 351 b 367 407 343 364 346 400 l 422 425 l 373 458 l 338 455 b 297 328 272 430 263 371 l 357 278 z "},"l":{"ha":289,"x_min":0,"x_max":0,"o":"m 152 1063 l 152 -114 b 70 -196 152 -160 116 -196 l 5 -196 l -28 -262 l 70 -262 b 234 -98 161 -262 234 -188 l 234 1063 b 218 1079 234 1072 227 1079 l 169 1079 b 152 1063 160 1079 152 1072 z "},"m":{"ha":428,"x_min":0,"x_max":0,"o":"m 111 1079 l 111 16 b 127 0 111 7 118 0 l 177 0 b 193 16 186 0 193 7 l 193 1079 l 209 1079 b 291 997 254 1079 291 1042 l 291 785 b 307 768 291 776 298 768 l 357 768 b 373 785 366 768 373 776 l 373 981 b 209 1144 373 1071 300 1144 z "},"n":{"ha":493,"x_min":0,"x_max":0,"o":"m 111 1079 l 111 16 b 127 0 111 7 118 0 l 177 0 b 193 16 186 0 193 7 l 193 1079 l 209 1079 b 291 997 254 1079 291 1042 l 291 523 b 307 507 291 514 298 507 l 406 507 l 438 572 l 373 572 l 373 981 b 209 1144 373 1071 300 1144 z "},"o":{"ha":428,"x_min":0,"x_max":0,"o":"m 111 971 l 242 742 l 373 971 l 294 971 b 242 871 294 971 242 870 l 190 971 z "},"p":{"ha":428,"x_min":0,"x_max":0,"o":"m 111 1079 l 111 16 b 127 0 111 7 118 0 l 177 0 b 193 16 186 0 193 7 l 193 1079 l 209 1079 b 291 997 254 1079 291 1042 l 291 785 b 307 768 291 776 298 768 l 357 768 b 373 785 366 768 373 776 l 373 981 b 209 1144 373 1071 300 1144 z "},"q":{"ha":542,"x_min":0,"x_max":0,"o":"m 193 114 l 193 1063 b 177 1079 193 1072 186 1079 l 127 1079 b 111 1063 118 1079 111 1072 l 111 16 b 127 0 111 7 118 0 l 193 0 l 356 173 b 357 163 357 170 357 167 b 406 98 357 114 406 98 l 487 98 b 406 180 487 98 405 114 b 432 253 406 208 418 234 l 471 294 l 406 327 z "},"r":{"ha":289,"x_min":0,"x_max":0,"o":"m 152 1063 l 152 -114 b 70 -196 152 -160 116 -196 l 5 -196 l -28 -262 l 70 -262 b 234 -98 161 -262 234 -188 l 234 1063 b 218 1079 234 1072 227 1079 l 169 1079 b 152 1063 160 1079 152 1072 z "},"s":{"ha":526,"x_min":0,"x_max":0,"o":"m 193 16 l 193 964 l 357 801 l 297 750 b 338 624 263 708 272 649 l 373 621 l 422 654 l 367 672 b 361 728 346 679 343 715 l 406 752 l 471 785 l 193 1079 l 193 1079 l 127 1079 b 111 1063 118 1079 111 1072 l 111 16 b 127 0 111 7 118 0 l 177 0 b 193 16 186 0 193 7 z "},"t":{"ha":526,"x_min":0,"x_max":0,"o":"m 193 16 l 193 964 l 406 752 l 471 785 l 193 1079 l 127 1079 b 111 1063 118 1079 111 1072 l 111 16 b 127 0 111 7 118 0 l 177 0 b 193 16 186 0 193 7 z "},"u":{"ha":363,"x_min":0,"x_max":0,"o":"m 177 710 l 229 711 b 236 883 305 737 302 843 l 226 889 l 307 971 l 226 971 l 111 873 l 173 857 b 111 742 228 836 245 760 z "},"v":{"ha":428,"x_min":0,"x_max":0,"o":"m 111 1079 l 111 16 b 127 0 111 7 118 0 l 177 0 b 193 16 186 0 193 7 l 193 1079 l 209 1079 b 291 997 254 1079 291 1042 l 291 785 b 307 768 291 776 298 768 l 357 768 b 373 785 366 768 373 776 l 373 981 b 209 1144 373 1071 300 1144 z "},"w":{"ha":363,"x_min":0,"x_max":0,"o":"m 111 1063 l 111 0 l 193 -82 l 183 -88 b 189 -260 116 -128 114 -234 l 242 -262 l 307 -229 b 246 -114 173 -211 190 -135 l 307 -98 l 193 0 l 193 1063 b 177 1079 193 1072 186 1079 l 127 1079 b 111 1063 118 1079 111 1072 z "},"x":{"ha":247,"x_min":0,"x_max":0,"o":"m 111 16 b 127 0 111 7 118 0 l 177 0 b 193 16 186 0 193 7 l 193 1063 b 177 1079 193 1072 186 1079 l 127 1079 b 111 1063 118 1079 111 1072 z "},"y":{"ha":739,"x_min":0,"x_max":0,"o":"m 193 1063 l 193 0 l 111 0 l 129 -45 b 684 16 207 -177 562 -227 l 602 16 l 554 -37 b 275 -49 444 -137 309 -78 l 275 1063 b 258 1079 275 1072 267 1079 l 209 1079 b 193 1063 200 1079 193 1072 z "},"z":{"ha":510,"x_min":0,"x_max":0,"o":"m 111 1079 l 111 16 b 127 0 111 7 118 0 l 177 0 b 193 16 186 0 193 7 l 193 1079 l 455 1357 l 373 1357 z "},"Â":{"ha":247,"x_min":0,"x_max":0,"o":"m 111 955 l 111 742 b 127 726 111 733 118 726 l 177 726 b 193 742 186 726 193 733 l 193 955 b 177 971 193 964 186 971 l 127 971 b 111 955 118 971 111 964 z "},"Û":{"ha":428,"x_min":0,"x_max":0,"o":"m 291 971 l 111 726 l 193 726 l 373 971 z "},"â":{"ha":247,"x_min":0,"x_max":0,"o":"m 111 955 l 111 742 b 127 726 111 733 118 726 l 177 726 b 193 742 186 726 193 733 l 193 955 b 177 971 193 964 186 971 l 127 971 b 111 955 118 971 111 964 z "},"û":{"ha":428,"x_min":0,"x_max":0,"o":"m 291 971 l 111 726 l 193 726 l 373 971 z "}}}
